<?xml version="1.0"?><svg width="793.7007874015749" height="1122.5196850393702" xmlns="http://www.w3.org/2000/svg">
 <title>Business man 2</title>

 <metadata id="metadata3643">image/svg+xml</metadata>
 <g>
  <title>Layer 1</title>
  <g id="svg_3">
   <rect transform="matrix(9.37201 0 0 9.37201 -3581.13 -3868.44)" fill="#3f3f3f" stroke-width="0.6" stroke-linecap="round" stroke-linejoin="round" stroke-miterlimit="4" id="rect4074" width="35.090118" height="35.090118" x="402.96667" y="459.355551" ry="2.48921"/>
   <rect fill="#ffffff" stroke-width="0.6" stroke-linecap="round" stroke-linejoin="round" stroke-miterlimit="4" id="rect4081" width="28.044523" height="28.044523" x="786.978758" y="-322.794252" transform="matrix(3.55121 8.67315 -3.55121 8.67315 -3581.13 -3868.44)"/>
   <g fill="#b3b3b3" id="g4083" transform="matrix(3.22142 0 0 3.22142 -1334.75 -1143.95)">
    <rect fill="#808080" stroke-width="0.6" stroke-linecap="round" stroke-linejoin="round" stroke-miterlimit="4" transform="matrix(0.707107 0.707107 -0.707107 0.707107 0 0)" y="-27.994144" x="715.966593" height="15.55807" width="15.55807" id="rect4076"/>
    <path fill="#808080" stroke-width="0.6" stroke-linecap="round" stroke-linejoin="round" stroke-miterlimit="4" id="rect4078" d="m526.059753,502.636841l11.001221,11.001221l-11.001221,41.654663l-11.001221,-41.654663l11.001221,-11.001221z"/>
   </g>
   <path fill="#999999" stroke-width="0.6" stroke-linecap="round" stroke-linejoin="round" stroke-miterlimit="4" id="path4072" d="m460.08313,310.013062a100.171509,100.171509 0 1 1 -200.343018,0a100.171509,100.171509 0 1 1 200.343018,0z"/>
  </g>
 </g>
</svg>